<svg xmlns="http://www.w3.org/2000/svg" width="174.536" height="208.249" viewBox="0 0 174.536 208.249"><defs><style>.a{fill:rgba(0,0,0,0);}.a,.b,.c{stroke:#5e5f5f;stroke-miterlimit:10;stroke-width:2px;}.b{fill:none;stroke-linecap:round;}.c{fill:#fff;}.d{fill:#8081ed;}.e{fill:#5cc1ff;}.f{fill:#30dd7d;}.g{fill:#ffcb45;}.h{fill:#f70e56;}</style></defs><g transform="translate(1.026 1.413)"><path class="a" d="M24,189.169a28.441,28.441,0,0,1,9.951-5.428c15.379-4.523,13.57-1.809,33.471-3.619s21.711-6.332,21.711-6.332l1.809-1.809c5.5-3.935,41.975-46.48,46.688-51.98s13.922-20.39,11.76-27.519C146.307,81.933,83.914,49,43.205,1.05" transform="translate(-4.504 -1.005)"/><path class="b" d="M82.325,187.807s-38.474,4.071-44.807,4.975-18.093,6.332-12.665,9.046,6.332,1.809,16.283,0,9.788-3.012,17.64-4.975c10.856-2.714,10.856-3.619,19-2.714s7.689,2.262,13.117.452.9-5.428,12.665-1.809,37.09,9.046,39.8,8.142,3.619-5.428,1.809-6.332-4.523-1.809-9.951-2.714c-9.318-1.556-9.951-.9-16.283-1.809-8.495-1.212-17.188-7.237-17.188-7.237l5.175-5.428c2.361-3.148,33.019-36.185,45.6-49.538s25.212-29.165,24.4-36.176c-1.339-11.136-12.583-25.945-21.232-36.185C149.2,47.86,132.5,14.57,118.031,1" transform="translate(-4.452 -1)"/><path class="c" d="M2.625.048C1.558.081.658.455.072,2.769A3.18,3.18,0,0,0,1.38,6.118,4.928,4.928,0,0,1,5.974,2.21C6.32,2.175,4.337-.376,2.625.048Z" transform="translate(17.626 197.977) rotate(17)"/><path class="b" d="M77.74,202s-15.379,2.714-24.425,2.714-26.234,2.714-33.471,4.523-11.76,1.809-10.856,4.523-.9,2.714,2.714,3.619,10.856,0,10.856,0" transform="translate(-3.061 -20.168)"/><path class="c" d="M5.714,214.093a4.589,4.589,0,0,0-4.636,3.734,2.745,2.745,0,0,0,.677,2.891s2.769-3.959,5.317-3.292c.339,0,.23-2.236,0-2.848S5.714,214.093,5.714,214.093Z" transform="translate(-0.968 -21.348)"/><path class="c" d="M159.2,216.472c-.19-.571,2.19-.238,3.38,2.142.881,2.648-.19,3.428-.19,3.428a5.307,5.307,0,0,0-5.094-1.952S159.391,217.043,159.2,216.472Z" transform="translate(-17.258 -20.681)"/><rect class="d" width="57.725" height="23.502" rx="2" transform="translate(88.519 49.862) rotate(-40.38)"/><rect class="e" width="38.926" height="20.725" rx="2" transform="translate(120.458 72.419) rotate(-40.38)"/><rect class="f" width="29.202" height="20.725" rx="2" transform="matrix(0.802, 0.598, -0.598, 0.802, 95.078, 148.382)"/><rect class="g" width="29.202" height="20.725" rx="2" transform="matrix(0.802, 0.598, -0.598, 0.802, 116.787, 125.597)"/><rect class="h" width="29.202" height="20.725" rx="2" transform="matrix(0.802, 0.598, -0.598, 0.802, 136.688, 102.074)"/></g></svg>