<svg xmlns="http://www.w3.org/2000/svg" width="81.378" height="40.02" viewBox="0 0 81.378 40.02"><defs><style>.a{fill:#fff;}</style></defs><path class="a" d="M13.156-4.246A4.276,4.276,0,0,1,12-1.265,4.676,4.676,0,0,1,8.382,0H.858V-2.508H2.4v-9.284H.858V-14.3H8.294a5.075,5.075,0,0,1,3.157.913,2.9,2.9,0,0,1,1.2,2.431A3,3,0,0,1,11.968-9a2.974,2.974,0,0,1-1.914,1.034v.088a3.432,3.432,0,0,1,2.321,1.21A3.786,3.786,0,0,1,13.156-4.246Zm-3.674-5.94A1.333,1.333,0,0,0,8.9-11.473a2.822,2.822,0,0,0-1.375-.319H5.346v3.344H7.3A2.283,2.283,0,0,0,9.02-8.954,1.761,1.761,0,0,0,9.482-10.186Zm.506,5.83q0-1.8-2.178-1.8H5.346v3.652H7.612Q9.988-2.508,9.988-4.356Zm5.61-7.326V-14.63h2.838v2.948ZM19.866,0H14.388V-2.134h1.32V-7.766h-1.43V-9.922h4.268v7.788h1.32Zm7.3-10.054a4.141,4.141,0,0,1,.935.121,3.5,3.5,0,0,1,1.023.429l.44,3.476-2.156.242L27.038-7.48a1.554,1.554,0,0,0-.77-.264,1.145,1.145,0,0,0-.847.374,1.519,1.519,0,0,0-.363,1.1v4.136h1.76V0H20.9V-2.134h1.32V-7.766H20.79V-9.922h4.048V-8.03a3.471,3.471,0,0,1,.781-1.441A2.008,2.008,0,0,1,27.17-10.054ZM42.2,0H38.038V-1.848A3.983,3.983,0,0,1,36.806-.385a3.529,3.529,0,0,1-2.156.6,3.8,3.8,0,0,1-3.08-1.342,5.518,5.518,0,0,1-1.122-3.652,6.4,6.4,0,0,1,1.1-3.784A3.792,3.792,0,0,1,34.87-10.12a3.666,3.666,0,0,1,1.98.484A3.408,3.408,0,0,1,38.038-8.4V-12.98h-1.98v-2.156h4.818v13H42.2ZM38.038-5.016v-.242a2.706,2.706,0,0,0-.649-1.925,2.124,2.124,0,0,0-1.617-.693,2.3,2.3,0,0,0-1.661.7A3.007,3.007,0,0,0,33.4-4.95a3.2,3.2,0,0,0,.66,2.178,2.021,2.021,0,0,0,1.562.748,2.039,2.039,0,0,0,1.771-.946A3.546,3.546,0,0,0,38.038-5.016ZM13.156,15.754A4.276,4.276,0,0,1,12,18.735,4.676,4.676,0,0,1,8.382,20H.858V17.492H2.4V8.208H.858V5.7H8.294a5.075,5.075,0,0,1,3.157.913,2.9,2.9,0,0,1,1.2,2.431,2.936,2.936,0,0,1-2.6,2.992v.088a3.432,3.432,0,0,1,2.321,1.21A3.786,3.786,0,0,1,13.156,15.754ZM9.482,9.814A1.333,1.333,0,0,0,8.9,8.527a2.822,2.822,0,0,0-1.375-.319H5.346v3.344H7.3a2.283,2.283,0,0,0,1.716-.506A1.761,1.761,0,0,0,9.482,9.814Zm.506,5.83q0-1.8-2.178-1.8H5.346v3.652H7.612Q9.988,17.492,9.988,15.644Zm5.192-4.862a13.6,13.6,0,0,1,2.167-.715,10.016,10.016,0,0,1,2.079-.187,4.631,4.631,0,0,1,2.772.836,2.907,2.907,0,0,1,1.166,2.53v4.312q0,.77.682.77a1.455,1.455,0,0,0,.418-.066l.022,1.5a3.711,3.711,0,0,1-1.782.462,1.965,1.965,0,0,1-2.178-1.958V18.24a4.622,4.622,0,0,1-1.2,1.364,3.117,3.117,0,0,1-1.991.616,3.762,3.762,0,0,1-2.068-.638,2.414,2.414,0,0,1-.99-2.2,2.348,2.348,0,0,1,1.463-2.42,8.312,8.312,0,0,1,3.157-.594,12.946,12.946,0,0,1,1.628.088v-.33a5.381,5.381,0,0,0-.209-1.5Q20.108,11.9,18.9,11.9a5.383,5.383,0,0,0-.8.055,2.4,2.4,0,0,0-.715.231L17.006,13.6l-2.266-.242Zm5.346,5.17V15.82l-.715-.088a5.938,5.938,0,0,0-.715-.044,3.012,3.012,0,0,0-1.32.275,1.088,1.088,0,0,0-.572,1.089,1.262,1.262,0,0,0,.264.814,1.092,1.092,0,0,0,.9.33,2.147,2.147,0,0,0,1.4-.539A2.4,2.4,0,0,0,20.526,15.952ZM37.6,20H32.12V17.866h1.32V14.412a3.011,3.011,0,0,0-.429-1.826,1.506,1.506,0,0,0-1.265-.55,1.967,1.967,0,0,0-1.562.627,2.481,2.481,0,0,0-.572,1.639v3.564h1.32V20H25.454V17.866h1.32V12.234h-1.43V10.078h4.268V11.6A3.4,3.4,0,0,1,32.8,9.88a3.765,3.765,0,0,1,2.442.836,3.141,3.141,0,0,1,1.034,2.6v4.554H37.6Zm12.5,0H45.936V18.152A3.983,3.983,0,0,1,44.7,19.615a3.529,3.529,0,0,1-2.156.6,3.8,3.8,0,0,1-3.08-1.342,5.518,5.518,0,0,1-1.122-3.652,6.4,6.4,0,0,1,1.1-3.784A3.792,3.792,0,0,1,42.768,9.88a3.666,3.666,0,0,1,1.98.484A3.408,3.408,0,0,1,45.936,11.6V7.02h-1.98V4.864h4.818v13h1.32Zm-4.158-5.016v-.242a2.706,2.706,0,0,0-.649-1.925,2.124,2.124,0,0,0-1.617-.693,2.3,2.3,0,0,0-1.661.7,3.007,3.007,0,0,0-.715,2.222,3.2,3.2,0,0,0,.66,2.178,2.072,2.072,0,0,0,3.333-.2A3.546,3.546,0,0,0,45.936,14.984Zm6.38-6.666V5.37h2.838V8.318ZM56.584,20H51.106V17.866h1.32V12.234H51V10.078h4.268v7.788h1.32Zm13.178,0H64.284V17.866H65.6V14.412a3.011,3.011,0,0,0-.429-1.826,1.506,1.506,0,0,0-1.265-.55,1.967,1.967,0,0,0-1.562.627,2.481,2.481,0,0,0-.572,1.639v3.564H63.1V20H57.618V17.866h1.32V12.234h-1.43V10.078h4.268V11.6a3.4,3.4,0,0,1,3.19-1.716,3.765,3.765,0,0,1,2.442.836,3.141,3.141,0,0,1,1.034,2.6v4.554h1.32Zm12.474-7.766h-1.32v7.26a5.62,5.62,0,0,1-1.342,3.883,5.261,5.261,0,0,1-4.136,1.507,7.169,7.169,0,0,1-2.948-.627,3.885,3.885,0,0,1-2.046-2.343l2.178-1.232A3.176,3.176,0,0,0,75.46,22.64a2.41,2.41,0,0,0,1.881-.825,3.365,3.365,0,0,0,.737-2.321V18.2a3.57,3.57,0,0,1-1.166,1.276,3.644,3.644,0,0,1-2.09.528,4.311,4.311,0,0,1-3.036-1.21,4.638,4.638,0,0,1-1.3-3.564,6.068,6.068,0,0,1,1.188-3.784A3.89,3.89,0,0,1,74.954,9.88a3.576,3.576,0,0,1,1.936.484,3.355,3.355,0,0,1,1.188,1.254v-1.54h4.158Zm-4.158,2.75v-.242a2.766,2.766,0,0,0-.627-1.925,2.056,2.056,0,0,0-1.6-.693,2.018,2.018,0,0,0-1.573.7,3.282,3.282,0,0,0-.627,2.222,3.1,3.1,0,0,0,.561,2.068,1.856,1.856,0,0,0,1.463.638,2.077,2.077,0,0,0,1.782-.836A3.177,3.177,0,0,0,78.078,14.984Z" transform="translate(-0.858 15.136)"/></svg>