<svg xmlns="http://www.w3.org/2000/svg" width="196.324" height="20" viewBox="0 0 196.324 20"><defs><style>.a{fill:#6b7785;}</style></defs><g transform="translate(34 -112)"><path class="a" d="M-34,131.014s24.761-2.8,48.18-2.8c23.922,0,48.83,2.8,48.83,2.8V132s-25.073-2.65-48.825-2.65C-9.239,129.35-34,132-34,132v-.986Zm9.521-4.56h-2.133l-3.748-7.579a38.656,38.656,0,0,1-1.739-3.914l-.124.021c.1,1.222.145,2.651.165,3.976l.083,7.5h-.783c-.9,0-1.226-.874-1.226-1.859V112.185h2.319l3.977,7.869a27.561,27.561,0,0,1,1.408,3.417l.124-.042c-.041-.414-.207-2.671-.207-4.245l-.042-7h1.926v14.268Zm35.5-1.488-.5,1.657H2.01V125.09L7.767,116a13.794,13.794,0,0,1,1.015-1.471c-.414.042-.932.062-1.636.062H2.259l.476-1.656h8.2v1.594l-5.695,9.1c-.311.538-.642.953-.891,1.367.435-.021.911-.021,1.429-.021Zm65.482.386a8.2,8.2,0,0,1-4.225,1.139,5.635,5.635,0,0,1-4.514-1.926,7.721,7.721,0,0,1-1.657-5.343,7.433,7.433,0,0,1,2.465-5.6,5.34,5.34,0,0,1,3.582-1.222,5.953,5.953,0,0,1,4.038,1.429l-.953,1.242A4.849,4.849,0,0,0,72.192,114a3.242,3.242,0,0,0-3.065,1.822,6.533,6.533,0,0,0-.787,3.5,7.282,7.282,0,0,0,1.015,4.307,3.941,3.941,0,0,0,3.065,1.284,4.26,4.26,0,0,0,2.112-.538v-4.059H71.9l-.331-1.636H76.5v6.668Zm10.382-4.162c0,3.293-1.761,5.385-4.515,5.385-2.775,0-4.494-2.112-4.494-5.488,0-3.355,1.719-5.467,4.452-5.467,3.065,0,4.556,2.444,4.556,5.571Zm-2.133.083c0-3.21-.932-4.183-2.423-4.183-1.657,0-2.34,1.181-2.34,3.789,0,3.168.808,4.225,2.423,4.225,1.449,0,2.34-1.118,2.34-3.831Zm11.659-5.364-3.789,10.458H90.837L87.13,115.95l1.967-.311,2.051,6.275c.228.7.455,1.533.621,2.237.166-.621.372-1.429.663-2.278l1.967-5.964Zm8.671,5.591H98.763v.249a3.9,3.9,0,0,0,.435,2.071,2.7,2.7,0,0,0,2.381,1.222,3.69,3.69,0,0,0,2.547-.995l.725,1.139a5.3,5.3,0,0,1-3.582,1.325c-2.879,0-4.639-2.092-4.639-5.488a5.671,5.671,0,0,1,1.242-4.018A3.869,3.869,0,0,1,101,115.578a3.742,3.742,0,0,1,2.816,1.118c.911.932,1.242,2.092,1.264,4.473v.331Zm-1.988-1.408a3.8,3.8,0,0,0-.642-2.34,1.865,1.865,0,0,0-1.491-.725c-1.449,0-2.175,1.181-2.175,3.065Zm8.91-4.411-.663,1.905a1.547,1.547,0,0,0-.538-.1,2.171,2.171,0,0,0-2.154,2.112v6.689h-1.905v-7.621a6.615,6.615,0,0,0-.394-2.588l1.843-.476a4.288,4.288,0,0,1,.352,1.595v.186a3.413,3.413,0,0,1,2.817-1.8,1.888,1.888,0,0,1,.642.1Zm9.094,10.6h-1.884v-7c0-.932-.083-1.264-.332-1.595a1.283,1.283,0,0,0-1.056-.414,4.186,4.186,0,0,0-2.568,1.325v7.683H113.37V118.56a5.66,5.66,0,0,0-.393-2.464l1.8-.5a3.294,3.294,0,0,1,.352,1.595,9.451,9.451,0,0,1,1.346-1.015,3.842,3.842,0,0,1,1.926-.518,2.6,2.6,0,0,1,2.444,1.47,3.266,3.266,0,0,1,.248,1.3v7.849Zm14.909,0H134.12V118.85c0-1.181-.373-1.595-1.243-1.595a3.555,3.555,0,0,0-2.422,1.408v7.621h-1.864v-7.393c0-1.16-.331-1.595-1.284-1.595a3.566,3.566,0,0,0-2.381,1.2v7.787h-1.885v-7.621a5.644,5.644,0,0,0-.373-2.588l1.781-.435a2.938,2.938,0,0,1,.352,1.45,4.236,4.236,0,0,1,2.92-1.471,2.679,2.679,0,0,1,2.465,1.636,4.446,4.446,0,0,1,3.168-1.636c1.615,0,2.651,1.015,2.651,2.92v7.745Zm9.918-4.784h-6.317v.249a3.9,3.9,0,0,0,.435,2.071,2.7,2.7,0,0,0,2.381,1.222,3.689,3.689,0,0,0,2.547-.995l.725,1.139a5.3,5.3,0,0,1-3.583,1.325c-2.878,0-4.639-2.092-4.639-5.488a5.671,5.671,0,0,1,1.243-4.018,3.867,3.867,0,0,1,3.127-1.429,3.743,3.743,0,0,1,2.816,1.118c.911.932,1.242,2.092,1.263,4.473v.331Zm-1.988-1.408a3.8,3.8,0,0,0-.642-2.34,1.863,1.863,0,0,0-1.491-.725c-1.449,0-2.174,1.181-2.174,3.065Zm11.374,6.192h-1.885v-7c0-.932-.083-1.264-.331-1.595a1.283,1.283,0,0,0-1.056-.414,4.186,4.186,0,0,0-2.568,1.325v7.683h-1.885V118.56a5.659,5.659,0,0,0-.394-2.464l1.8-.5a3.294,3.294,0,0,1,.352,1.595,9.45,9.45,0,0,1,1.346-1.015,3.842,3.842,0,0,1,1.926-.518,2.6,2.6,0,0,1,2.444,1.47,3.267,3.267,0,0,1,.248,1.3v7.849Zm7.015-10.375-.518,1.346h-2.05v6.254c0,1.284.311,1.678,1.346,1.678a2.289,2.289,0,0,0,.973-.207l.228,1.159a4.131,4.131,0,0,1-1.885.435,2.871,2.871,0,0,1-1.76-.518c-.435-.393-.766-.6-.766-2.112v-6.689H156.65v-1.346h1.242a22.508,22.508,0,0,1,.125-2.651l1.967-.456c-.083.745-.186,2.051-.186,3.106ZM-14.581,121.5h-6.348v.25a3.919,3.919,0,0,0,.438,2.081,2.716,2.716,0,0,0,2.393,1.228,3.708,3.708,0,0,0,2.56-1l.728,1.145a5.322,5.322,0,0,1-3.6,1.331c-2.893,0-4.662-2.1-4.662-5.515a5.7,5.7,0,0,1,1.248-4.037,3.887,3.887,0,0,1,3.143-1.436,3.763,3.763,0,0,1,2.83,1.124c.915.937,1.248,2.1,1.27,4.5v.333Zm-2-1.415a3.814,3.814,0,0,0-.645-2.352,1.874,1.874,0,0,0-1.5-.728c-1.457,0-2.185,1.187-2.185,3.08Zm16.383-4.2-2.913,10.51H-4.962l-1.519-5.681c-.188-.728-.645-2.456-.645-2.456h-.062s-.416,1.768-.562,2.331l-1.561,5.806h-1.831l-2.851-10.426,1.935-.312,1.332,5.848c.229,1.041.541,2.56.541,2.56h.062s.229-1.478.479-2.373l1.581-5.806h1.977l1.457,5.64c.291,1.124.582,2.435.582,2.539h.084c0-.1.333-1.79.479-2.477l1.29-5.7ZM19.221,121.5H12.874v.25a3.92,3.92,0,0,0,.437,2.081,2.717,2.717,0,0,0,2.393,1.228,3.708,3.708,0,0,0,2.56-1l.729,1.145a5.325,5.325,0,0,1-3.6,1.331c-2.893,0-4.662-2.1-4.662-5.515a5.7,5.7,0,0,1,1.248-4.037,3.888,3.888,0,0,1,3.143-1.436,3.763,3.763,0,0,1,2.83,1.124c.916.937,1.248,2.1,1.27,4.5v.333Zm-2-1.415a3.81,3.81,0,0,0-.645-2.352,1.874,1.874,0,0,0-1.5-.728c-1.457,0-2.185,1.187-2.185,3.08Zm11.825,5.369-.978,1.29a2.383,2.383,0,0,1-1.394-1.5,3.619,3.619,0,0,1-2.955,1.374c-2.081,0-3.371-1.061-3.371-3.059,0-2.414,1.935-3.7,5.307-3.7.249,0,.458,0,.728.021v-.687c0-1.228-.166-2.06-1.623-2.06a5.762,5.762,0,0,0-3.205,1.186l-.874-1.374a8.212,8.212,0,0,1,4.37-1.374c1.519,0,2.622.562,3.018,1.665a4.756,4.756,0,0,1,.208,1.831c0,.75-.083,2.352-.083,3.871,0,1.435.041,2.019.853,2.518Zm-2.706-4.267c-.291-.021-.458-.041-.624-.041-1.436,0-2.31.271-2.726.749a2.011,2.011,0,0,0-.541,1.519c0,1.145.583,1.811,1.644,1.811a2.6,2.6,0,0,0,2.185-1.374l.062-2.664Zm7.284,5.1a2.807,2.807,0,0,1-1.187.229,1.769,1.769,0,0,1-1.623-.791,2.643,2.643,0,0,1-.4-1.811v-8.5a13.564,13.564,0,0,0-.229-3l2-.417a12.95,12.95,0,0,1,.187,2.976v8.436c0,1.1.062,1.353.271,1.54a.684.684,0,0,0,.645.145l.334,1.187Zm9.5-.832-.978,1.29a2.38,2.38,0,0,1-1.394-1.5,3.619,3.619,0,0,1-2.955,1.374c-2.081,0-3.372-1.061-3.372-3.059,0-2.414,1.936-3.7,5.307-3.7.249,0,.458,0,.728.021v-.687c0-1.228-.166-2.06-1.623-2.06a5.76,5.76,0,0,0-3.205,1.186l-.874-1.374a8.212,8.212,0,0,1,4.37-1.374c1.519,0,2.622.562,3.018,1.665a4.756,4.756,0,0,1,.208,1.831c0,.75-.084,2.352-.084,3.871,0,1.435.042,2.019.854,2.518Zm-2.706-4.267c-.291-.021-.458-.041-.624-.041-1.436,0-2.31.271-2.726.749a2.011,2.011,0,0,0-.541,1.519c0,1.145.583,1.811,1.644,1.811a2.6,2.6,0,0,0,2.185-1.374l.062-2.664Zm22.249,5.12H60.836a4.046,4.046,0,0,1-.187-.978,3.479,3.479,0,0,1-2.685,1.144c-2.664,0-4.225-2-4.225-5.286,0-2.247.77-3.975,2.185-4.891a3.6,3.6,0,0,1,2.04-.6A3.106,3.106,0,0,1,60.5,116.9c0-.292-.042-1.884-.042-2.591v-2.16l1.915.312v10.349a12.49,12.49,0,0,0,.291,3.5Zm-2.227-2.643V118.21a2.67,2.67,0,0,0-2.206-.978,2.041,2.041,0,0,0-1.811,1.062,5.536,5.536,0,0,0-.541,2.872c0,2.019.25,2.58.812,3.163a1.958,1.958,0,0,0,1.54.541,2.47,2.47,0,0,0,2.206-1.207ZM52.1,126.305H50.206v-7.034c0-.937-.084-1.27-.333-1.6a1.29,1.29,0,0,0-1.061-.417,4.207,4.207,0,0,0-2.58,1.331v7.721h-.963c-.607,0-.931-.455-.931-1.167v-6.6a5.686,5.686,0,0,0-.4-2.477l1.811-.5a3.311,3.311,0,0,1,.354,1.6,9.517,9.517,0,0,1,1.353-1.02,3.858,3.858,0,0,1,1.936-.52,2.608,2.608,0,0,1,2.456,1.477,3.285,3.285,0,0,1,.249,1.311v7.887Z" transform="translate(0 0)"/></g></svg>