<svg xmlns="http://www.w3.org/2000/svg" width="176.326" height="144" viewBox="0 0 176.326 144"><defs><style>.a{fill:#d9dee5;}.a,.b,.c{fill-rule:evenodd;}.b{fill:#157efb;}.c{fill:#fdc13b;}</style></defs><g transform="translate(-1277 -460)"><path class="a" d="M78.7,109.19V131.6h95.473A14.684,14.684,0,0,0,188.907,116.9V21.394A14.707,14.707,0,0,0,174.177,6.7H27.312A14.688,14.688,0,0,0,12.581,21.394V116.9A14.707,14.707,0,0,0,27.312,131.6H41.969V109.19a25.714,25.714,0,1,1,36.735,0ZM34.622,43.435v7.347H166.867V43.435Zm66.122,22.041v7.347h66.122V65.475Zm22.041,22.041v7.347h44.082V87.516ZM78.7,91.19Z" transform="translate(1264.419 453.3)"/><g transform="translate(1306.151 526.352)"><path class="b" d="M17.581,21.363V57.528L28.569,46.54,39.557,57.528V21.363a25.516,25.516,0,0,1-10.988,2.469,25.565,25.565,0,0,1-10.988-2.469Z" transform="translate(-10.256 20.12)"/><path class="c" d="M34.894,52.326A18.313,18.313,0,1,0,16.581,34.013,18.31,18.31,0,0,0,34.894,52.326Z" transform="translate(-16.581 -15.7)"/></g></g></svg>