<svg xmlns="http://www.w3.org/2000/svg" width="132.941" height="33.942" viewBox="0 0 132.941 33.942"><defs><style>.a{fill:none;stroke:#c0c5cb;stroke-linecap:round;stroke-width:3px;stroke-dasharray:4 7;}.b{fill:rgba(0,0,0,0);}.c{fill:#c0c5cb;}</style></defs><g transform="translate(-407.53 -810.58)"><line class="a" x2="61" transform="translate(444.5 827.5)"/><g transform="translate(-73.298 1967.406) rotate(-135)"><rect class="b" width="24" height="24" transform="translate(372 1216)"/><path class="c" d="M393.992,1222.429l-12.94,12.94h6.642a1.189,1.189,0,0,1,0,2.378h-9.506a1.192,1.192,0,0,1-1.188-1.189v-9.507a1.188,1.188,0,1,1,2.377,0v6.643l12.94-12.93a1.181,1.181,0,0,1,1.675,1.664Z" transform="translate(-1.458 -1.288)"/></g><g transform="translate(1021.298 -312.306) rotate(45)"><rect class="b" width="24" height="24" transform="translate(372 1216)"/><path class="c" d="M393.992,1222.429l-12.94,12.94h6.642a1.189,1.189,0,0,1,0,2.378h-9.506a1.192,1.192,0,0,1-1.188-1.189v-9.507a1.188,1.188,0,1,1,2.377,0v6.643l12.94-12.93a1.181,1.181,0,0,1,1.675,1.664Z" transform="translate(-1.458 -1.288)"/></g></g></svg>