<svg xmlns="http://www.w3.org/2000/svg" width="43.47" height="27.254" viewBox="0 0 43.47 27.254">
  <g id="Group_358" data-name="Group 358" transform="translate(0.498 -5.001)">
    <path id="Subtraction_1" data-name="Subtraction 1" d="M15809.493,14939.255a17.5,17.5,0,0,1-17.491-17.406,8.779,8.779,0,0,0,8.705,8.672,8.5,8.5,0,0,0,6.113-2.589,9.4,9.4,0,0,0,2.649-6.173,9.373,9.373,0,0,1,2.645-6.212,8.529,8.529,0,0,1,6.113-2.546,8.792,8.792,0,0,1,8.226,5.742l7.213,2.992-6.891,2.856a17.5,17.5,0,0,1-17.282,14.663Zm10.149-21.446a1.818,1.818,0,0,0-1.816,1.816,1.84,1.84,0,0,0,1.816,1.815,1.816,1.816,0,0,0,0-3.632Z" transform="translate(-15792 -14907.5)" fill="#D9DEE5" stroke="rgba(0,0,0,0)" stroke-miterlimit="10" stroke-width="1"/>
  </g>
</svg>
