<svg xmlns="http://www.w3.org/2000/svg" width="70" height="70" viewBox="0 0 70 70"><defs><style>.a{fill:#e7f2f6;}.b{opacity:0.997;}.c{fill:none;}.d{fill:#00789a;}</style></defs><g transform="translate(-480 -654)"><circle class="a" cx="35" cy="35" r="35" transform="translate(480 654)"/><g class="b" transform="translate(495 669)"><path class="c" d="M0,0H40.682V40.682H0Z"/><path class="d" d="M32.439,5.431H27.078L23.984,2H13.837L10.743,5.431H5.382A3.417,3.417,0,0,0,2,8.861V29.445a3.417,3.417,0,0,0,3.382,3.431H32.439a3.417,3.417,0,0,0,3.382-3.431V8.861A3.417,3.417,0,0,0,32.439,5.431Zm0,24.015H5.382V8.861h6.849l3.095-3.431H22.5L25.59,8.861h6.849ZM18.911,10.577a8.577,8.577,0,1,0,8.455,8.577A8.52,8.52,0,0,0,18.911,10.577Zm0,13.723a5.146,5.146,0,1,1,5.073-5.146A5.125,5.125,0,0,1,18.911,24.3Z" transform="translate(1.431 1.431)"/></g></g></svg>