<svg xmlns="http://www.w3.org/2000/svg" width="61.952" height="60.936" viewBox="0 0 61.952 60.936"><defs><style>.a,.b{fill:none;}.b{stroke:#c0c5cb;stroke-linecap:round;stroke-width:3px;}.c,.d{stroke:none;}.d{fill:#c0c5cb;}</style></defs><g transform="translate(-732.548 -677.5)"><g class="a" transform="translate(734.5 677.5)"><path class="c" d="M30,0A30,30,0,1,1,0,30,30,30,0,0,1,30,0Z"/><path class="d" d="M 30 7 C 17.31775283813477 7 7 17.31775283813477 7 30 C 7 42.68224334716797 17.31775283813477 53 30 53 C 42.68224334716797 53 53 42.68224334716797 53 30 C 53 17.31775283813477 42.68224334716797 7 30 7 M 30 0 C 46.56853866577148 0 60 13.43146133422852 60 30 C 60 46.56853866577148 46.56853866577148 60 30 60 C 13.43146133422852 60 0 46.56853866577148 0 30 C 0 13.43146133422852 13.43146133422852 0 30 0 Z"/></g><line class="b" y1="56.274" x2="56.274" transform="translate(734.669 680.04)"/></g></svg>