<svg xmlns="http://www.w3.org/2000/svg" xmlns:xlink="http://www.w3.org/1999/xlink" width="38.743" height="29.839" viewBox="0 0 38.743 29.839"><defs><style>.a,.c{fill:#6b7785;}.a{stroke:#eceef2;}.b{clip-path:url(#a);}.c{fill-rule:evenodd;}</style><clipPath id="a"><path class="a" d="M.086,0H38.657a.093.093,0,0,1,.086.1v29.64a.093.093,0,0,1-.086.1H.086a.093.093,0,0,1-.086-.1V.1A.093.093,0,0,1,.086,0Z" transform="translate(59 542)"/></clipPath></defs><g class="b" transform="translate(-59 -542)"><g transform="translate(61.396 542)"><g transform="translate(0 0)"><path class="c" d="M17.017,5.522a8.364,8.364,0,0,1,7.6-2.99,8.018,8.018,0,0,1,6.493,5.485,10.415,10.415,0,0,1-.53,7.02c-1.462,3.55-5.783,8.6-13.607,12.124C9.151,23.634,4.83,18.588,3.368,15.038a10.415,10.415,0,0,1-.53-7.02A8.018,8.018,0,0,1,9.331,2.532a8.364,8.364,0,0,1,7.6,2.99l.041.045.042-.045Zm-.042-3.316A10.609,10.609,0,0,0,1.467,5.034,10.72,10.72,0,0,0,.014,11.161a16.217,16.217,0,0,0,4.114,9.722c3.158,3.757,7.723,6.709,12.747,8.912l.1.044.1-.044c5-2.2,9.589-5.155,12.746-8.912a16.216,16.216,0,0,0,4.114-9.722,10.72,10.72,0,0,0-1.453-6.127A10.609,10.609,0,0,0,16.975,2.206Z" transform="translate(0 0)"/><path class="c" d="M336.178,368.647l-2.147-1.064c-.746,1.088-1.289,1.825-2.858,1.4-1.231-.337-1.6-1.687-1.642-2.819-.064-1.546.477-3.332,2.323-3.236a2.089,2.089,0,0,1,1.951,1.383l2.344-1.2a5.326,5.326,0,0,0-6.155-2.338,5.11,5.11,0,0,0-3.634,5.32c.044,2.475,1.233,4.614,3.785,5.172a5.7,5.7,0,0,0,3.752-.369A5.055,5.055,0,0,0,336.178,368.647Zm10.122,0-2.147-1.064c-.746,1.088-1.289,1.825-2.858,1.4-1.231-.337-1.6-1.687-1.642-2.819-.064-1.546.477-3.332,2.323-3.236a2.089,2.089,0,0,1,1.952,1.383l2.344-1.2a5.326,5.326,0,0,0-6.155-2.338,5.11,5.11,0,0,0-3.634,5.32c.044,2.475,1.233,4.614,3.785,5.172a5.7,5.7,0,0,0,3.752-.369A5.055,5.055,0,0,0,346.3,368.647Z" transform="translate(-319.323 -352.785)"/></g></g></g></svg>